<?xml version="1.0" encoding="utf-8"?>
<!-- Generator: Adobe Illustrator 17.0.0, SVG Export Plug-In . SVG Version: 6.00 Build 0)  -->
<!DOCTYPE svg PUBLIC "-//W3C//DTD SVG 1.1//EN" "http://www.w3.org/Graphics/SVG/1.1/DTD/svg11.dtd">
<svg version="1.1" xmlns="http://www.w3.org/2000/svg" xmlns:xlink="http://www.w3.org/1999/xlink" x="0px" y="0px"
	 width="377.034px" height="1157.45px" viewBox="0 0 377.034 1157.45" enable-background="new 0 0 377.034 1157.45"
	 xml:space="preserve">
<g id="Layer_2" display="none">
	<polygon display="inline" points="377.111,1157.522 0,1157.45 0,-2.535 377.034,-2.535 	"/>
</g>
<g id="Layer_1">
	<g id="XMLID_1_" opacity="0.2">
		<g>
			<path fill="#E6E7E8" d="M377.034,967.89v189.56l-96.044-26.4c-0.03-0.01-0.05-0.01-0.07-0.02c-20.6-5.91-36.38-10.47-36.38-10.47
				L377.034,967.89z"/>
			<path fill="#D1D3D4" d="M375.33,762.67l1.704,205.22L144.746,807.204L375.33,762.67z"/>
			<polygon fill="#BCBEC0" points="377.034,967.89 244.54,1120.56 182.63,983.25 			"/>
			<polygon fill="#BCBEC0" points="377.034,967.89 182.63,983.25 182.61,983.2 			"/>
			<path fill="#D1D3D4" d="M377.034,967.89L182.61,983.2l-0.06,0.06L182,983.3l0.11-0.1L0.53,997.96l91.331-155.907L377.034,967.89z
				"/>
			<path fill="#A7A9AC" d="M377.034,967.89L91.861,842.053l52.885-34.849L377.034,967.89z"/>
			<path fill="#D1D3D4" d="M377.059-0.01l-1.679,151.05L216.76,86.69c-0.01-0.01-0.02-0.01-0.03-0.01L377.009,0.01L377.059-0.01z"/>
			<path fill="#BCBEC0" d="M377.059-0.01l-0.05,0.02c0,0-270.329,120-272.159,123.48L1.52-0.125l-0.13-0.17l-1.41-1.74L377.059-0.01
				z"/>
			<path fill="#D1D3D4" d="M375.5,592.13l-0.17,170.54l-120.46-27.94c3.85,0,115.22-135.99,120.44-142.37L375.5,592.13z"/>
			<path fill="#BCBEC0" d="M375.5,592.13l-0.19,0.23L254.83,734.72L186.8,611.68c-0.13-0.23-0.19-0.35-0.19-0.35
				c1.76,0.58,172.01-17.41,187.73-19.08c0.38-0.04,0.67-0.07,0.87-0.09L375.5,592.13z"/>
			<polygon fill="#E6E7E8" points="375.5,592.13 375.21,592.16 374.34,592.25 186.61,611.33 168.06,453.35 168.02,453.01 
				375,592.13 375,591.79 			"/>
			<path fill="#A7A9AC" d="M377.034,1157.45H161.72l-12.753-63.523l132.075,36.805c-0.102,0.308-0.082,0.308-0.052,0.318
				C318.98,1141.96,377.034,1157.45,377.034,1157.45z"/>
			<path fill="#A7A9AC" d="M377.009,0.01L216.73,86.68c-1.84,0-111.88,36.81-111.88,36.81C106.68,120.01,377.009,0.01,377.009,0.01z
				"/>
			<polygon fill="#E6E7E8" points="375.38,151.04 375,388.77 249.24,280.18 			"/>
			<polygon fill="#D1D3D4" points="375.38,151.04 249.24,280.18 182.29,177.75 			"/>
			<path fill="#BCBEC0" d="M375.38,151.04l-193.09,26.71c0,0,0-0.01,0.01-0.02c0.01-0.03,0.04-0.11,0.09-0.23
				c0.02-0.04,0.03-0.09,0.05-0.14c2.54-6.38,35.63-89.6,34.32-90.67L375.38,151.04z"/>
			<path fill="#A7A9AC" d="M375.33,762.67l-230.584,44.534c0,0,110.104-71.814,110.104-72.474h0.02L375.33,762.67z"/>
			<polygon fill="#BCBEC0" points="375,389.35 375,591.79 167.98,452.65 			"/>
			<polygon fill="#A7A9AC" points="375,389.2 168.38,452.37 260.2,389.35 			"/>
			<polygon fill="#D1D3D4" points="375,389.2 260.2,389.35 249.24,280.18 			"/>
			<polygon fill="#BCBEC0" points="249.24,280.18 260.2,389.35 168.38,452.37 168.06,452.47 			"/>
			<path fill="#F1F2F2" d="M254.56,734.73c0.14-0.01,0.23-0.01,0.27-0.01c-5.635,3.748-0.887,0.596-108,71.25l-52.97,34.8
				l-96.695,62.738L26.58,746c0,0,1.72-0.09,4.87-0.24l0.72-0.04c0.75-0.04,1.57-0.08,2.45-0.12l0.98-0.05
				c0.99-0.05,2.05-0.1,3.17-0.15l1.27-0.07c0.23-0.01,0.45-0.02,0.68-0.03l1.4-0.07l1.45-0.07c0.25-0.02,0.5-0.03,0.75-0.04
				l6.46-0.32L254.56,734.73z"/>
			<path fill="#E6E7E8" d="M254.83,734.72c-0.04,0-0.13,0-0.27,0.01c-7.15,0.27-146.55,7.21-203.78,10.07
				c-2.29,0.11-4.45,0.22-6.46,0.32c-0.25,0.01-0.5,0.02-0.75,0.04c-0.49,0.02-0.98,0.04-1.45,0.07c-0.48,0.02-0.94,0.04-1.4,0.07
				c-0.23,0.01-0.45,0.02-0.68,0.03c-0.43,0.02-0.85,0.04-1.27,0.07c-1.12,0.05-2.18,0.1-3.17,0.15c-0.33,0.02-0.66,0.03-0.98,0.05
				c-0.88,0.04-1.7,0.08-2.45,0.12c-0.25,0.01-0.49,0.03-0.72,0.04c-3.15,0.15-4.87,0.24-4.87,0.24l160.03-134.67
				c0,0,0.06,0.12,0.19,0.35C190.62,618.85,251.87,733.64,254.83,734.72z"/>
			<polygon fill="#A7A9AC" points="182.29,177.75 249.24,280.18 104.85,123.49 			"/>
			<polygon fill="#E6E7E8" points="104.85,123.49 249.24,280.18 0.17,245 104.8,123.54 			"/>
			<path fill="#E6E7E8" d="M249.24,280.18l-81.18,172.29l-0.39,0.12c-0.04,0-0.09-0.01-0.14-0.02
				c-9.3-1.68-161.09-29.12-167.03-28.01L249.24,280.18z"/>
			<polygon fill="#D1D3D4" points="249.24,280.18 0,424.56 0.17,245 			"/>
			<polygon fill="#A7A9AC" points="182.63,983.25 244.54,1120.56 205.29,1071.503 182.62,983.25 			"/>
			<polygon fill="#E6E7E8" points="205.29,1071.503 244.54,1120.56 148.845,1094.225 148.845,1094.225 			"/>
			<path fill="#D1D3D4" d="M216.73,86.68l-34.29,90.68c-0.02,0.05-0.03,0.1-0.05,0.14l-0.09,0.23c-0.01,0.01-0.01,0.02-0.01,0.02
				l-77.44-54.26C104.85,123.49,214.89,86.68,216.73,86.68z"/>
			<polygon fill="#D1D3D4" points="182.62,983.25 205.29,1071.503 148.968,1094.167 0.008,1157.447 182.55,983.26 			"/>
			<polygon fill="#D1D3D4" points="186.61,611.33 26.58,746 0.5,667.58 			"/>
			<path fill="#BCBEC0" d="M186.61,611.33L0.5,667.58L0,424.56l0.4,0.4c3.04,9.4,180.48,180.84,186.08,186.24l0.07,0.07
				c0.01,0.01,0.02,0.02,0.03,0.03L186.61,611.33z"/>
			<path fill="#D1D3D4" d="M186.55,611.27l-0.07-0.07L0.4,424.96c-0.08-0.24-0.05-0.37,0.1-0.4l167.03,28.01l0.13,0.03l-0.18,0.05
				l0.54,0.36l0.04,0.34C169.26,464.65,184.54,607.91,186.55,611.27z"/>
			<path fill="#A7A9AC" d="M0.4,424.96L186.48,611.2C180.88,605.8,3.44,434.36,0.4,424.96z"/>
			<polygon fill="#A7A9AC" points="182.61,983.2 182.63,983.25 182.62,983.25 			"/>
			<polygon fill="#D1D3D4" points="182.61,983.2 182.62,983.25 182.55,983.26 			"/>
			<polygon fill="#BCBEC0" points="182.11,983.2 182,983.3 0.5,998 0.53,997.96 			"/>
			<polygon fill="#BCBEC0" points="182,983.3 0,1157.45 0,998 0.53,997.96 0.5,998 			"/>
			<polygon fill="#BCBEC0" points="148.845,1094.225 161.72,1157.45 0,1157.45 			"/>
			<path fill="#D1D3D4" d="M104.8,123.54L0.17,245L-0.52-2.535l1.91,2.24l0.13,0.17L104.8,123.54z"/>
			<path fill="#A7A9AC" d="M91.861,842.053L0,998l-2.835-94.492l0,0l0,0C-2.835,903.508,91.861,842.053,91.861,842.053z"/>
			<polygon fill="#A7A9AC" points="0,667.58 26.58,746 -2.835,903.508 			"/>
		</g>
	</g>
</g>
</svg>
