<?xml version="1.0" encoding="utf-8"?>
<!-- Generator: Adobe Illustrator 17.0.0, SVG Export Plug-In . SVG Version: 6.00 Build 0)  -->
<!DOCTYPE svg PUBLIC "-//W3C//DTD SVG 1.1//EN" "http://www.w3.org/Graphics/SVG/1.1/DTD/svg11.dtd">
<svg version="1.1" id="Layer_1" xmlns="http://www.w3.org/2000/svg" xmlns:xlink="http://www.w3.org/1999/xlink" x="0px" y="0px"
	 width="375px" height="667px" viewBox="0 0 375 667" enable-background="new 0 0 375 667" xml:space="preserve">
<g id="challenge_detail_bg">
	<polygon fill="#79E425" points="0.49,0.498 200.369,0.498 375.49,0.498 375.49,667.498 196.025,667.498 0.49,667.498 	"/>
	<g>
		<defs>
			<rect id="SVGID_1_" x="0.49" y="0.498" width="375" height="667"/>
		</defs>
		<clipPath id="SVGID_2_">
			<use xlink:href="#SVGID_1_"  overflow="visible"/>
		</clipPath>
		<g display="none" clip-path="url(#SVGID_2_)">
			<ellipse display="inline" fill="#DCDCDC" cx="300.781" cy="165.03" rx="147.432" ry="147.211"/>
			<ellipse display="inline" fill="#E7E7E7" cx="300.781" cy="165.03" rx="109.828" ry="109.664"/>
			<ellipse display="inline" fill="#EEEEEE" cx="300.781" cy="165.03" rx="72.773" ry="72.664"/>
			<ellipse display="inline" fill="#F6F6F6" cx="300.781" cy="165.03" rx="38.547" ry="38.489"/>
		</g>
		<g clip-path="url(#SVGID_2_)">
			<defs>
				<polygon id="SVGID_3_" points="0.49,0.498 201.319,0.498 375.49,0.498 375.49,667.498 196.025,667.498 0.49,667.498 				"/>
			</defs>
			<clipPath id="SVGID_4_">
				<use xlink:href="#SVGID_3_"  overflow="visible"/>
			</clipPath>
			<g id="overzicht_alt_bg_18_" clip-path="url(#SVGID_4_)">
				<g>
					<ellipse fill="#68C322" cx="8.559" cy="399.502" rx="134.08" ry="133.879"/>
					<ellipse fill="#6BC823" cx="8.559" cy="399.502" rx="99.882" ry="99.732"/>
					<ellipse fill="#70D224" cx="8.559" cy="399.502" rx="66.182" ry="66.083"/>
					<ellipse fill="#75DC24" cx="8.559" cy="399.502" rx="35.056" ry="35.003"/>
				</g>
			</g>
			<g id="overzicht_alt_bg_17_" clip-path="url(#SVGID_4_)">
				<g>
					<ellipse fill="#68C322" cx="209.384" cy="80.414" rx="44.378" ry="44.312"/>
					<ellipse fill="#6BC823" cx="209.384" cy="80.414" rx="33.059" ry="33.01"/>
					<ellipse fill="#70D224" cx="209.384" cy="80.414" rx="21.905" ry="21.872"/>
					<ellipse fill="#75DC24" cx="209.384" cy="80.414" rx="11.875" ry="11.858"/>
				</g>
			</g>
			<g id="overzicht_alt_bg_19_" clip-path="url(#SVGID_4_)">
				<g>
					<ellipse fill="#68C322" cx="389.56" cy="269.306" rx="110.375" ry="110.21"/>
					<ellipse fill="#6BC823" cx="389.56" cy="269.306" rx="82.223" ry="82.1"/>
					<ellipse fill="#70D224" cx="389.56" cy="269.306" rx="54.481" ry="54.4"/>
					<ellipse fill="#75DC24" cx="389.56" cy="269.306" rx="29.536" ry="29.492"/>
				</g>
			</g>
			<g clip-path="url(#SVGID_4_)">
				<path fill="#75DC24" d="M375.49,481.32l-58.868-71.305l-15.227,53.919l-50.053,36.606l-22.865-33.768l-27.988,24.22v51.7
					c0,0-26.618,22.312-30.618,21.641c-4-0.672-70.621-11.656-70.621-11.656l35.017,49.887l-3.007,29.886l-40.259,34.052
					l284.488,0.004V481.32z"/>
				<polygon fill="#70D224" points="337.872,475.292 312.563,548.682 244.159,523.22 239.707,532.706 221.23,528.213 
					215.242,567.154 160.248,583.13 134.251,578.138 149.253,611.512 144.254,651.029 118.254,656.021 108.976,666.502 
					375.49,666.506 375.49,515.482 				"/>
				<polygon fill="#6BC823" points="349.872,519.697 375.49,515.482 375.49,666.506 127.224,666.502 168.313,657.519 
					173.284,624.818 159.269,600.23 221.762,587.686 230.758,549.213 266.256,583.645 269.755,563.168 328.064,607.099 				"/>
				<polygon fill="#68C322" points="243.306,650.029 238.254,612.011 292.754,621.856 342.754,630.397 360.754,577.701 
					371.372,605.628 375.49,559.42 375.49,667.498 219.902,667.498 				"/>
			</g>
		</g>
	</g>
</g>
</svg>
