<?xml version="1.0" encoding="utf-8"?>
<!-- Generator: Adobe Illustrator 17.0.0, SVG Export Plug-In . SVG Version: 6.00 Build 0)  -->
<!DOCTYPE svg PUBLIC "-//W3C//DTD SVG 1.1//EN" "http://www.w3.org/Graphics/SVG/1.1/DTD/svg11.dtd">
<svg version="1.1" id="Layer_1" xmlns="http://www.w3.org/2000/svg" xmlns:xlink="http://www.w3.org/1999/xlink" x="0px" y="0px"
	 width="27.987px" height="31.45px" viewBox="0 0 27.987 31.45" enable-background="new 0 0 27.987 31.45" xml:space="preserve">
<g>
	<g>
		<path fill="#FFFFFF" d="M23.711,15.807l-0.094,0.203c-0.173-0.286-0.415-0.719-0.687-1.206c-0.766-1.372-1.815-3.251-2.901-4.717
			l-0.022-0.029c-1.08-1.336-2.28-1.986-3.668-1.986c-0.453,0-0.928,0.072-1.411,0.215c-1.644,0.485-1.897,1.523-1.93,1.946
			c-0.064,0.816,0.563,2.349,2.242,3.143l0.001,1.216c0.834-0.224,1.857-0.672,1.939-1.34c0.068-0.553-0.217-1.085-0.721-1.325
			c-1.497-0.71-1.771-1.334-1.747-1.56c0.105-1.009,2.223-1.368,3.947,0.759c1.017,1.375,2.03,3.19,2.77,4.517
			c0.24,0.429,0.447,0.801,0.619,1.094l-4.92,10.615c-0.484-0.132-0.908-0.19-1.336-0.19c-0.267,0-0.511,0.022-0.749,0.044
			c-0.262,0.024-0.532,0.048-0.879,0.048c-0.231,0-0.471-0.01-0.735-0.032c-1.567-0.128-4.081-1.351-5.231-2.001
			c-0.568-0.418-0.62-0.688-0.516-1.242H5.945c-0.096,0.819,0.046,1.772,1.284,2.663l0.037,0.027l0.04,0.023
			c0.368,0.21,3.665,2.054,5.982,2.244c0.311,0.026,0.598,0.038,0.876,0.038c0.424,0,0.748-0.029,1.036-0.055
			c0.217-0.02,0.404-0.036,0.593-0.036c0.311,0,0.708,0.04,1.49,0.326l0.168,0.067l-0.088,0.189l4.276,1.988l6.349-13.655
			L23.711,15.807z"/>
		<path fill="#FFFFFF" d="M14.44,20.678v-6.502l-0.461-0.325c-0.496-0.294-0.91-0.653-1.243-1.043V18.8H1.705V4.334h11.031v4.027
			c0.35-0.293,0.822-0.559,1.459-0.747c0.082-0.024,0.164-0.046,0.246-0.067V2.456C14.44,1.1,13.341,0,11.985,0H2.456
			C1.1,0,0,1.1,0,2.456v18.222c0,1.356,1.1,2.456,2.456,2.456h9.529C13.341,23.134,14.44,22.035,14.44,20.678z M11.117,2.265
			c0.291,0,0.527,0.236,0.527,0.527s-0.236,0.527-0.527,0.527c-0.291,0-0.527-0.236-0.527-0.527S10.826,2.265,11.117,2.265z
			 M4.941,2.364h4.558v0.86H4.941L4.941,2.364z M7.22,21.243c-0.507,0-0.917-0.411-0.917-0.917c0-0.507,0.411-0.917,0.917-0.917
			c0.507,0,0.917,0.411,0.917,0.917C8.138,20.832,7.727,21.243,7.22,21.243z"/>
		<path fill="#FFFFFF" d="M8.132,10.579c0.27,0,0.49-0.219,0.49-0.489c0-0.269-0.22-0.489-0.49-0.489
			c-0.27,0-0.489,0.219-0.489,0.489C7.643,10.359,7.863,10.579,8.132,10.579z"/>
		<path fill="#FFFFFF" d="M6.473,10.09c0-0.269-0.22-0.489-0.49-0.489c-0.27,0-0.489,0.219-0.489,0.489
			c0,0.27,0.219,0.489,0.489,0.489C6.253,10.579,6.473,10.359,6.473,10.09z"/>
		<path fill="#FFFFFF" d="M7.974,11.874c0.048-0.074,0.037-0.171-0.026-0.232c-0.063-0.061-0.16-0.07-0.233-0.021
			c-0.156,0.106-0.395,0.167-0.658,0.167c-0.262,0-0.502-0.061-0.659-0.167c-0.073-0.049-0.17-0.04-0.232,0.021
			c-0.063,0.062-0.073,0.159-0.025,0.232c0.164,0.251,0.515,0.407,0.916,0.407C7.459,12.282,7.81,12.125,7.974,11.874z"/>
		<path fill="#FFFFFF" d="M3.731,16.127v1.181h6.805v-1.181c0-1.378-0.86-2.554-2.072-3.023c1.133-0.531,1.921-1.682,1.921-3.014
			c0-1.835-1.492-3.327-3.327-3.327c-0.757,0-1.455,0.255-2.015,0.682C4.721,7.343,4.532,7.048,4.532,7.048
			C4.567,7.3,4.693,7.486,4.831,7.62C4.805,7.644,4.78,7.668,4.755,7.692c-0.31-0.053-0.53-0.278-0.53-0.278
			c0.076,0.212,0.21,0.359,0.353,0.462C4.051,8.465,3.731,9.24,3.731,10.09c0,1.36,0.82,2.531,1.991,3.046
			C4.553,13.625,3.731,14.78,3.731,16.127z M4.284,10.09c0-0.673,0.241-1.291,0.641-1.772c0.36,0.332,1.179,0.563,2.133,0.563
			c0.954,0,1.773-0.232,2.133-0.563c0.4,0.481,0.641,1.099,0.641,1.772c0,1.53-1.244,2.774-2.774,2.774S4.284,11.62,4.284,10.09z"/>
	</g>
</g>
</svg>
