<?xml version="1.0" encoding="utf-8"?>
<!-- Generator: Adobe Illustrator 17.0.0, SVG Export Plug-In . SVG Version: 6.00 Build 0)  -->
<!DOCTYPE svg PUBLIC "-//W3C//DTD SVG 1.1//EN" "http://www.w3.org/Graphics/SVG/1.1/DTD/svg11.dtd">
<svg version="1.1" id="Capa_1" xmlns="http://www.w3.org/2000/svg" xmlns:xlink="http://www.w3.org/1999/xlink" x="0px" y="0px"
	 width="595.28px" height="841.89px" viewBox="0 0 595.28 841.89" enable-background="new 0 0 595.28 841.89" xml:space="preserve">
<g>
	<g>
		<path fill="#0FE4F2" d="M515.473,261.168L453,260.841l-59.855-89.292c-3.598-5.561-9.812-9.158-16.354-9.158H215.544
			c-6.542,0-12.429,3.598-16.026,8.831L137.7,260.841l-57.893,0.327C35.979,261.168,0,297.147,0,340.974v258.064
			c0,43.829,35.979,80.461,79.806,80.461h435.666c43.829,0,79.806-36.632,79.806-80.461V340.974
			C595.28,297.147,559.301,261.168,515.473,261.168z M556.031,599.038c0,22.242-18.317,41.212-40.557,41.212H79.807
			c-22.242,0-40.557-18.97-40.557-41.212V340.974c0-22.242,18.317-40.557,40.557-40.557h68.359c6.542,0,12.429-3.598,16.026-8.831
			l61.817-89.619h140.316l59.528,88.965c3.598,5.233,9.812,8.831,16.026,8.831l73.266,0.655c22.242,0,40.557,18.317,40.557,40.557
			v258.064h0.327V599.038z"/>
		<path fill="#0FE4F2" d="M299.275,308.267c-76.863,0-139.008,62.472-139.008,139.008s62.472,139.007,139.008,139.007
			s139.008-62.472,139.008-139.008S375.811,308.267,299.275,308.267z M299.275,547.033c-54.949,0-99.759-44.81-99.759-99.759
			s44.81-99.759,99.759-99.759s99.759,44.81,99.759,99.759S354.224,547.033,299.275,547.033z"/>
		<circle fill="#0FE4F2" cx="485.382" cy="365.833" r="7.523"/>
		<path fill="#0FE4F2" d="M485.382,338.685c-15.045,0-27.148,12.101-27.148,27.148s12.101,27.148,27.148,27.148
			s27.148-12.101,27.148-27.148S500.427,338.685,485.382,338.685z M485.382,377.934c-6.869,0-12.101-5.561-12.101-12.101
			s5.561-12.101,12.101-12.101c6.542,0,12.101,5.561,12.101,12.101S492.251,377.934,485.382,377.934z"/>
	</g>
</g>
</svg>
