<?xml version="1.0" encoding="utf-8"?>
<!-- Generator: Adobe Illustrator 17.0.0, SVG Export Plug-In . SVG Version: 6.00 Build 0)  -->
<!DOCTYPE svg PUBLIC "-//W3C//DTD SVG 1.1//EN" "http://www.w3.org/Graphics/SVG/1.1/DTD/svg11.dtd">
<svg version="1.1" id="Layer_1" xmlns="http://www.w3.org/2000/svg" xmlns:xlink="http://www.w3.org/1999/xlink" x="0px" y="0px"
	 width="24.797px" height="23.363px" viewBox="-0.5 -2.69 24.797 23.363" enable-background="new -0.5 -2.69 24.797 23.363"
	 xml:space="preserve">
<g>
	<path fill="#FFFFFF" d="M0.563,0.058h22.671c0.584,0,1.063-0.618,1.063-1.374S23.819-2.69,23.234-2.69H0.563
		C-0.022-2.69-0.5-2.072-0.5-1.316S-0.022,0.058,0.563,0.058z"/>
	<path fill="#FFFFFF" d="M0.563,10.366h22.671c0.584,0,1.063-0.618,1.063-1.374c0-0.756-0.478-1.374-1.063-1.374H0.563
		c-0.584,0-1.063,0.618-1.063,1.374C-0.5,9.747-0.022,10.366,0.563,10.366z"/>
	<path fill="#FFFFFF" d="M0.563,20.673h22.671c0.584,0,1.063-0.618,1.063-1.374s-0.478-1.374-1.063-1.374H0.563
		c-0.584,0-1.063,0.618-1.063,1.374S-0.022,20.673,0.563,20.673z"/>
</g>
</svg>
