<?xml version="1.0" encoding="iso-8859-1"?>
<!-- Generator: Adobe Illustrator 16.0.0, SVG Export Plug-In . SVG Version: 6.00 Build 0)  -->
<!DOCTYPE svg PUBLIC "-//W3C//DTD SVG 1.1//EN" "http://www.w3.org/Graphics/SVG/1.1/DTD/svg11.dtd">
<svg version="1.1" id="Capa_1" xmlns="http://www.w3.org/2000/svg" xmlns:xlink="http://www.w3.org/1999/xlink" x="0px" y="0px"
	 width="612.002px" height="612.002px" viewBox="0 0 612.002 612.002" style="enable-background:new 0 0 612.002 612.002;"
	 xml:space="preserve">
<g>
	<g>
		<g>
			<g>
				<path d="M306.004,612.002c-168.731,0-306.003-137.271-306.003-306C0.001,137.272,137.273,0,306.004,0
					c168.729,0,305.997,137.272,305.997,306.002C612.001,474.731,474.732,612.002,306.004,612.002z M306.004,7.928
					c-164.36,0-298.076,133.716-298.076,298.074c0,164.358,133.716,298.072,298.076,298.072
					c164.355,0,298.069-133.714,298.069-298.072C604.073,141.644,470.359,7.928,306.004,7.928z"/>
			</g>
			<path d="M521.671,200.264l0.049-0.102c-39.115-79.127-120.61-133.571-214.852-133.571c-79.255,0-152.115,42.409-195.967,102.058
				l-0.035-0.057c-27.482,36.466-43.585,88.233-43.585,137.578c0,122.983,92.81,224.234,212.137,237.914l-0.009,0.015l0.349,0.025
				c2.535,0.285,5.077,0.548,7.634,0.754c0.001,0,0.005,0.002,0.005,0.002c0.06,0,0.16-0.077,0.271-0.183l2.093,0.15
				c5.472,0.375,10.954,0.564,16.416,0.564c82.455,0,162.68-42.557,207.194-118.915C553.55,357.562,555.728,267.939,521.671,200.264
				z M194.798,104.734c34.995-19.768,73.748-30.216,112.07-30.216c44.026,0,86.854,12.408,123.851,35.881
				c32.644,20.71,59.521,49.15,78.32,82.722l-198.888,0.024c-1.1-0.034-2.194-0.052-3.283-0.052
				c-62.264,0-112.973,50.322-113.651,112.429l-77.879-129.497C135.987,147.077,163.326,122.513,194.798,104.734z M366.838,393.825
				c-17.044,11.771-37.688,18.696-59.97,18.696c-47.679,0-87.952-31.53-101.162-74.864l-3.567-16.235
				c-0.666-4.789-1.024-9.678-1.024-14.649c0-56.198,43.821-102.13,99.174-105.529c0.75-0.044,1.482-0.081,2.208-0.113
				c1.452-0.06,2.906-0.111,4.373-0.111c0.677,0,1.374-0.024,2.078-0.056c10.127-0.052,17.545,0.932,22.479,1.96
				c9.494,2.361,18.826,6.076,27.708,11.257c50.46,29.414,69.898,92.227,40.478,142.696c-2.087,3.59-6.762,11.354-14.981,20.868
				C378.379,384.976,374.118,388.167,366.838,393.825z M283.626,536.578c-56.129-5.624-108.064-31.454-146.655-73.045
				C97.143,420.609,75.21,364.723,75.21,306.168c0-43.281,13.183-89.549,34.743-123.41l84.294,139.523l3.716,17.076l0.068,0.31
				l0.092,0.301c6.956,22.81,21.328,43.304,40.473,57.706c19.806,14.898,43.414,22.773,68.273,22.773
				c18.477,0,34.82-3.667,50.893-12.076l-70.934,122.877C285.748,533.051,284.678,534.833,283.626,536.578z M506.524,422.504
				c-20.774,35.636-50.651,65.089-86.403,85.173c-34.709,19.5-74.11,29.808-113.94,29.808c-4.573,0-9.188-0.158-13.763-0.432
				c9.638-16.848,38.469-67.189,61.441-106.809l17.802-30.126l1.053-0.818c6.893-5.351,11.445-8.887,17.914-16.373
				c9.187-10.629,14.192-19.236,15.831-22.059c15.217-26.101,18.936-56.449,10.479-85.455
				c-8.313-28.523-27.427-52.702-53.809-68.081c-4.459-2.601-9.074-4.885-13.812-6.848l164.183,1.208
				C547.919,268.002,545.354,355.88,506.524,422.504z"/>
		</g>
	</g>
</g>
<g>
</g>
<g>
</g>
<g>
</g>
<g>
</g>
<g>
</g>
<g>
</g>
<g>
</g>
<g>
</g>
<g>
</g>
<g>
</g>
<g>
</g>
<g>
</g>
<g>
</g>
<g>
</g>
<g>
</g>
</svg>
