<?xml version="1.0" encoding="utf-8"?>
<!-- Generator: Adobe Illustrator 17.0.0, SVG Export Plug-In . SVG Version: 6.00 Build 0)  -->
<!DOCTYPE svg PUBLIC "-//W3C//DTD SVG 1.1//EN" "http://www.w3.org/Graphics/SVG/1.1/DTD/svg11.dtd">
<svg version="1.1" id="Layer_1" xmlns="http://www.w3.org/2000/svg" xmlns:xlink="http://www.w3.org/1999/xlink" x="0px" y="0px"
	 width="22.556px" height="22.503px" viewBox="-1 -1.247 22.556 22.503" enable-background="new -1 -1.247 22.556 22.503"
	 xml:space="preserve">
<g display="none" opacity="0.7">
	<g display="inline">
		<g>
			<path fill="#FFFFFF" d="M16.937,12.249V3.46h-3.08v9.351c0.028-0.008,0.06-0.019,0.082-0.025
				C14.928,12.376,16.048,12.274,16.937,12.249z"/>
			<path fill="#FFFFFF" d="M12.317,13.152V-0.04H9.238v13.192c0.456,0.068,0.981,0.118,1.54,0.118
				C11.336,13.271,11.858,13.22,12.317,13.152z"/>
			<path fill="#FFFFFF" d="M21.556,8.826h-3.078v3.423c0.853,0.028,2.014,0.137,3.078,0.562V8.826z"/>
			<path fill="#FFFFFF" d="M7.698,12.814V5.139H4.619v7.108c0.892,0.026,2.025,0.133,3.066,0.562
				C7.688,12.811,7.695,12.813,7.698,12.814z"/>
			<path fill="#FFFFFF" d="M3.079,8.173H0v4.638c1.064-0.424,2.226-0.535,3.079-0.562V8.173z"/>
		</g>
	</g>
</g>
<g display="none" opacity="0.7">
	<g display="inline">
		<path fill="none" stroke="#FFFFFF" stroke-miterlimit="10" d="M21.556,10.738l-4.042-4.042V0.634h-2.694v3.368L10.778-0.04
			L0,10.738v0.674h2.694v6.736h6.736v-4.042h2.694v4.042h6.736v-6.736h2.694V10.738z"/>
	</g>
</g>
<g>
	<path fill="none" stroke="#FFFFFF" stroke-miterlimit="10" d="M21.022,3.17c-0.007-2.165-1.764-3.917-3.929-3.917H3.429
		c-1.044,0-2.046,0.416-2.782,1.155c-0.737,0.74-1.15,1.743-1.146,2.787l0.033,10.426C-0.46,15.787,1.297,17.5,3.462,17.5h3.881
		l1.835,2.669c0.248,0.356,0.653,0.586,1.086,0.587s0.839-0.238,1.088-0.592l1.857-2.665h3.918c1.044,0,2.045-0.378,2.782-1.117
		c0.737-0.74,1.15-1.724,1.146-2.768L21.022,3.17z M9.982,14.579c-0.817,0-1.373-0.602-1.373-1.404c0-0.818,0.571-1.404,1.373-1.404
		c0.833,0,1.374,0.586,1.389,1.404C11.371,13.976,10.816,14.579,9.982,14.579z M11.97,7.993c-0.623,0.69-0.757,1.347-0.757,2.105
		c0,0.563-0.457,1.02-1.02,1.02h-0.42c-0.557,0-1.011-0.448-1.02-1.004l-0.001-0.109C8.703,9.146,8.989,8.25,9.747,7.341
		c0.539-0.641,0.977-1.19,0.977-1.762c0-0.59-0.387-0.982-1.229-1.016c-0.257,0-0.539,0.043-0.812,0.119
		c-0.5,0.139-1.02-0.144-1.175-0.64c-0.156-0.5,0.117-1.032,0.614-1.196c0.544-0.181,1.209-0.308,1.944-0.308
		c2.223,0,3.285,1.229,3.285,2.627C13.351,6.443,12.611,7.285,11.97,7.993z"/>
</g>
</svg>
