<?xml version="1.0" encoding="utf-8"?>
<!-- Generator: Adobe Illustrator 17.0.0, SVG Export Plug-In . SVG Version: 6.00 Build 0)  -->
<!DOCTYPE svg PUBLIC "-//W3C//DTD SVG 1.1//EN" "http://www.w3.org/Graphics/SVG/1.1/DTD/svg11.dtd">
<svg version="1.1" id="Layer_1" xmlns="http://www.w3.org/2000/svg" xmlns:xlink="http://www.w3.org/1999/xlink" x="0px" y="0px"
	 width="21.556px" height="21.337px" viewBox="-0.5 -0.664 21.556 21.337" enable-background="new -0.5 -0.664 21.556 21.337"
	 xml:space="preserve">
<g>
	<path fill="#FFFFFF" d="M0.915,7.125c0.113,0.388,0.271,0.763,0.469,1.115L0.818,8.954C0.633,9.187,0.654,9.52,0.862,9.731
		l0.976,0.976c0.21,0.21,0.543,0.229,0.777,0.044l0.71-0.562c0.365,0.21,0.754,0.375,1.159,0.49l0.106,0.913
		c0.035,0.296,0.284,0.518,0.58,0.518h1.38c0.296,0,0.546-0.222,0.58-0.518l0.102-0.881c0.435-0.113,0.851-0.282,1.242-0.502
		l0.687,0.543c0.234,0.185,0.567,0.164,0.777-0.044l0.976-0.976c0.21-0.21,0.229-0.543,0.044-0.777l-0.534-0.678
		c0.222-0.384,0.395-0.793,0.511-1.221l0.823-0.095c0.296-0.035,0.518-0.284,0.518-0.58v-1.38c0-0.296-0.222-0.546-0.518-0.58
		l-0.812-0.095c-0.111-0.423-0.277-0.828-0.49-1.207l0.499-0.631c0.185-0.234,0.164-0.567-0.044-0.777L9.938,0.738
		c-0.21-0.21-0.543-0.229-0.777-0.044L8.548,1.179c-0.398-0.234-0.823-0.412-1.27-0.532L7.186-0.146
		c-0.035-0.296-0.284-0.518-0.58-0.518h-1.38c-0.296,0-0.546,0.222-0.58,0.518L4.553,0.648C4.095,0.77,3.658,0.955,3.251,1.198
		L2.615,0.694C2.381,0.509,2.048,0.53,1.838,0.738L0.862,1.714c-0.21,0.21-0.229,0.543-0.044,0.777L1.35,3.163
		C1.137,3.547,0.975,3.957,0.869,4.382L0.018,4.479C-0.278,4.514-0.5,4.764-0.5,5.06v1.38c0,0.296,0.222,0.546,0.518,0.58
		L0.915,7.125z M5.917,3.39c1.258,0,2.282,1.024,2.282,2.282S7.175,7.955,5.917,7.955c-1.258,0-2.282-1.024-2.282-2.282
		S4.659,3.39,5.917,3.39z"/>
	<path fill="#FFFFFF" d="M19.565,7.465l-0.728-0.615c-0.224-0.19-0.555-0.18-0.768,0.021l-0.402,0.377
		c-0.34-0.164-0.701-0.28-1.073-0.347L16.48,6.345c-0.058-0.287-0.324-0.486-0.615-0.462l-0.95,0.081
		c-0.291,0.025-0.52,0.264-0.53,0.557l-0.018,0.564c-0.365,0.132-0.71,0.312-1.024,0.539l-0.481-0.319
		C12.616,7.143,12.29,7.189,12.1,7.414l-0.615,0.733c-0.19,0.224-0.18,0.555,0.021,0.768l0.421,0.449
		c-0.146,0.328-0.25,0.673-0.31,1.027l-0.601,0.123c-0.287,0.058-0.486,0.324-0.462,0.615l0.081,0.95
		c0.025,0.291,0.264,0.52,0.557,0.53l0.65,0.021c0.118,0.31,0.273,0.604,0.46,0.879l-0.363,0.548
		c-0.162,0.245-0.116,0.571,0.109,0.761l0.728,0.615c0.224,0.19,0.555,0.18,0.768-0.021l0.476-0.446
		c0.312,0.146,0.641,0.254,0.978,0.319l0.132,0.652c0.058,0.287,0.324,0.486,0.615,0.462l0.95-0.081
		c0.291-0.025,0.52-0.264,0.53-0.557l0.021-0.638c0.347-0.123,0.675-0.289,0.978-0.495l0.525,0.347
		c0.245,0.162,0.571,0.116,0.761-0.109l0.615-0.728c0.19-0.224,0.18-0.555-0.021-0.768L19.68,12.92
		c0.155-0.328,0.268-0.675,0.333-1.031l0.578-0.118c0.287-0.058,0.486-0.324,0.462-0.615l-0.081-0.95
		c-0.025-0.291-0.264-0.52-0.557-0.53l-0.58-0.018C19.715,9.319,19.553,9,19.352,8.704l0.317-0.476
		C19.835,7.983,19.789,7.654,19.565,7.465z M15.983,12.959c-1.027,0.088-1.933-0.678-2.019-1.704
		c-0.088-1.027,0.678-1.933,1.704-2.019c1.027-0.088,1.933,0.678,2.019,1.704C17.775,11.967,17.009,12.873,15.983,12.959z"/>
	<path fill="#FFFFFF" d="M4.24,15.516c-0.291,0.03-0.516,0.275-0.518,0.569L3.715,16.67c-0.005,0.294,0.213,0.543,0.504,0.58
		l0.43,0.055c0.072,0.261,0.173,0.511,0.305,0.747l-0.277,0.342c-0.185,0.229-0.171,0.557,0.035,0.768l0.409,0.419
		c0.206,0.21,0.534,0.234,0.768,0.053l0.345-0.266c0.243,0.143,0.5,0.257,0.768,0.335l0.046,0.444
		c0.03,0.291,0.275,0.516,0.569,0.518l0.585,0.007c0.294,0.005,0.543-0.213,0.58-0.504l0.053-0.421
		c0.291-0.072,0.569-0.18,0.832-0.324l0.324,0.261c0.229,0.185,0.557,0.171,0.768-0.035l0.419-0.409
		c0.21-0.206,0.234-0.534,0.053-0.768l-0.247-0.321c0.153-0.254,0.271-0.525,0.352-0.809l0.384-0.039
		c0.291-0.03,0.516-0.275,0.518-0.569l0.007-0.585c0.005-0.294-0.213-0.543-0.504-0.58l-0.375-0.049
		c-0.072-0.282-0.178-0.555-0.317-0.809l0.234-0.287c0.185-0.229,0.171-0.557-0.035-0.768l-0.409-0.419
		c-0.206-0.21-0.534-0.234-0.768-0.053L9.79,13.4c-0.264-0.16-0.546-0.282-0.842-0.365l-0.037-0.363
		c-0.03-0.291-0.275-0.516-0.569-0.518l-0.585-0.007c-0.294-0.005-0.543,0.213-0.58,0.504l-0.046,0.361
		c-0.305,0.079-0.599,0.199-0.872,0.356L5.97,13.132c-0.229-0.185-0.557-0.171-0.768,0.035l-0.421,0.412
		c-0.21,0.206-0.234,0.534-0.053,0.768l0.247,0.319c-0.143,0.254-0.257,0.525-0.331,0.809L4.24,15.516z M8.017,14.855
		c0.839,0.009,1.512,0.701,1.503,1.54c-0.009,0.839-0.701,1.512-1.54,1.503c-0.839-0.009-1.512-0.701-1.503-1.54
		C6.486,15.519,7.177,14.846,8.017,14.855z"/>
</g>
</svg>
