<?xml version="1.0" encoding="utf-8"?>
<!-- Generator: Adobe Illustrator 17.0.0, SVG Export Plug-In . SVG Version: 6.00 Build 0)  -->
<!DOCTYPE svg PUBLIC "-//W3C//DTD SVG 1.1//EN" "http://www.w3.org/Graphics/SVG/1.1/DTD/svg11.dtd">
<svg version="1.1" id="Layer_1" xmlns="http://www.w3.org/2000/svg" xmlns:xlink="http://www.w3.org/1999/xlink" x="0px" y="0px"
	 width="22.556px" height="19.395px" viewBox="-0.5 -0.747 22.556 19.395" enable-background="new -0.5 -0.747 22.556 19.395"
	 xml:space="preserve">
<g display="none" opacity="0.7">
	<g display="inline">
		<g>
			<path fill="#FFFFFF" d="M16.937,12.249V3.46h-3.08v9.351c0.028-0.008,0.06-0.019,0.082-0.025
				C14.928,12.376,16.048,12.274,16.937,12.249z"/>
			<path fill="#FFFFFF" d="M12.317,13.152V-0.04H9.238v13.192c0.456,0.068,0.981,0.118,1.54,0.118
				C11.336,13.271,11.858,13.22,12.317,13.152z"/>
			<path fill="#FFFFFF" d="M21.556,8.826h-3.078v3.423c0.853,0.028,2.014,0.137,3.078,0.562V8.826z"/>
			<path fill="#FFFFFF" d="M7.698,12.814V5.139H4.619v7.108c0.892,0.026,2.025,0.133,3.066,0.562
				C7.688,12.811,7.695,12.813,7.698,12.814z"/>
			<path fill="#FFFFFF" d="M3.079,8.173H0v4.638c1.064-0.424,2.226-0.535,3.079-0.562V8.173z"/>
		</g>
	</g>
</g>
<g opacity="0.7">
	<g>
		<path fill="none" stroke="#FFFFFF" stroke-miterlimit="10" d="M21.556,10.738l-4.042-4.042V0.634h-2.694v3.368L10.778-0.04
			L0,10.738v0.674h2.694v6.736h6.736v-4.042h2.694v4.042h6.736v-6.736h2.694V10.738z"/>
	</g>
</g>
</svg>
