<?xml version="1.0" encoding="utf-8"?>
<!-- Generator: Adobe Illustrator 17.0.0, SVG Export Plug-In . SVG Version: 6.00 Build 0)  -->
<!DOCTYPE svg PUBLIC "-//W3C//DTD SVG 1.1//EN" "http://www.w3.org/Graphics/SVG/1.1/DTD/svg11.dtd">
<svg version="1.1" id="Layer_1" xmlns="http://www.w3.org/2000/svg" xmlns:xlink="http://www.w3.org/1999/xlink" x="0px" y="0px"
	 width="21.556px" height="21.556px" viewBox="0 -0.04 21.556 21.556" enable-background="new 0 -0.04 21.556 21.556"
	 xml:space="preserve">
<g display="none">
	<g display="inline">
		<path fill="#FFFFFF" d="M23.711,15.807l-0.094,0.203c-0.173-0.286-0.415-0.719-0.687-1.206c-0.766-1.372-1.815-3.251-2.901-4.717
			l-0.022-0.029c-1.08-1.336-2.28-1.986-3.668-1.986c-0.453,0-0.928,0.072-1.411,0.215c-1.644,0.485-1.897,1.523-1.93,1.946
			c-0.064,0.816,0.563,2.349,2.242,3.143l0.001,1.216c0.834-0.224,1.857-0.672,1.939-1.34c0.068-0.553-0.217-1.085-0.721-1.325
			c-1.497-0.71-1.771-1.334-1.747-1.56c0.105-1.009,2.223-1.368,3.947,0.759c1.017,1.375,2.03,3.19,2.77,4.517
			c0.24,0.429,0.447,0.801,0.619,1.094l-4.92,10.615c-0.484-0.132-0.908-0.19-1.336-0.19c-0.267,0-0.511,0.022-0.749,0.044
			c-0.262,0.024-0.532,0.048-0.879,0.048c-0.231,0-0.471-0.01-0.735-0.032c-1.567-0.128-4.081-1.351-5.231-2.001
			c-0.568-0.418-0.62-0.688-0.516-1.242H5.945c-0.096,0.819,0.046,1.772,1.284,2.663l0.037,0.027l0.04,0.023
			c0.368,0.21,3.665,2.054,5.982,2.244c0.311,0.026,0.598,0.038,0.876,0.038c0.424,0,0.748-0.029,1.036-0.055
			c0.217-0.02,0.404-0.036,0.593-0.036c0.311,0,0.708,0.04,1.49,0.326l0.168,0.067l-0.088,0.189l4.276,1.988l6.349-13.655
			L23.711,15.807z"/>
		<path fill="#FFFFFF" d="M14.44,20.678v-6.502l-0.461-0.325c-0.496-0.294-0.91-0.653-1.243-1.043V18.8H1.705V4.334h11.031v4.027
			c0.35-0.293,0.822-0.559,1.459-0.747c0.082-0.024,0.164-0.046,0.246-0.067V2.456C14.44,1.1,13.341,0,11.985,0H2.456
			C1.1,0,0,1.1,0,2.456v18.222c0,1.356,1.1,2.456,2.456,2.456h9.529C13.341,23.134,14.44,22.035,14.44,20.678z M11.117,2.265
			c0.291,0,0.527,0.236,0.527,0.527s-0.236,0.527-0.527,0.527S10.59,3.083,10.59,2.792S10.826,2.265,11.117,2.265z M4.941,2.364
			h4.558v0.86H4.941V2.364z M7.22,21.243c-0.507,0-0.917-0.411-0.917-0.917c0-0.507,0.411-0.917,0.917-0.917
			c0.507,0,0.917,0.411,0.917,0.917C8.138,20.832,7.727,21.243,7.22,21.243z"/>
		<path fill="#FFFFFF" d="M8.132,10.579c0.27,0,0.49-0.219,0.49-0.489c0-0.269-0.22-0.489-0.49-0.489
			c-0.27,0-0.489,0.219-0.489,0.489C7.643,10.359,7.863,10.579,8.132,10.579z"/>
		<path fill="#FFFFFF" d="M6.473,10.09c0-0.269-0.22-0.489-0.49-0.489c-0.27,0-0.489,0.219-0.489,0.489s0.219,0.489,0.489,0.489
			S6.473,10.359,6.473,10.09z"/>
		<path fill="#FFFFFF" d="M7.974,11.874c0.048-0.074,0.037-0.171-0.026-0.232c-0.063-0.061-0.16-0.07-0.233-0.021
			c-0.156,0.106-0.395,0.167-0.658,0.167c-0.262,0-0.502-0.061-0.659-0.167c-0.073-0.049-0.17-0.04-0.232,0.021
			c-0.063,0.062-0.073,0.159-0.025,0.232c0.164,0.251,0.515,0.407,0.916,0.407C7.459,12.282,7.81,12.125,7.974,11.874z"/>
		<path fill="#FFFFFF" d="M3.731,16.127v1.181h6.805v-1.181c0-1.378-0.86-2.554-2.072-3.023c1.133-0.531,1.921-1.682,1.921-3.014
			c0-1.835-1.492-3.327-3.327-3.327c-0.757,0-1.455,0.255-2.015,0.682C4.721,7.343,4.532,7.048,4.532,7.048
			C4.567,7.3,4.693,7.486,4.831,7.62C4.805,7.644,4.78,7.668,4.755,7.692c-0.31-0.053-0.53-0.278-0.53-0.278
			c0.076,0.212,0.21,0.359,0.353,0.462C4.051,8.465,3.731,9.24,3.731,10.09c0,1.36,0.82,2.531,1.991,3.046
			C4.553,13.625,3.731,14.78,3.731,16.127z M4.284,10.09c0-0.673,0.241-1.291,0.641-1.772c0.36,0.332,1.179,0.563,2.133,0.563
			s1.773-0.232,2.133-0.563c0.4,0.481,0.641,1.099,0.641,1.772c0,1.53-1.244,2.774-2.774,2.774S4.284,11.62,4.284,10.09z"/>
	</g>
</g>
<g>
	<path fill="#FFFFFF" d="M21.552,10.483c-0.001-0.027-0.002-0.054-0.003-0.08c-0.002-0.059-0.004-0.118-0.007-0.176
		c-0.001-0.03-0.003-0.061-0.005-0.091c-0.003-0.057-0.007-0.114-0.011-0.17c-0.002-0.028-0.004-0.057-0.006-0.085
		c-0.005-0.068-0.011-0.136-0.018-0.204c-0.001-0.016-0.003-0.031-0.004-0.047c-0.008-0.083-0.018-0.165-0.028-0.247
		c-0.003-0.024-0.007-0.048-0.01-0.073c-0.008-0.059-0.016-0.117-0.025-0.175c-0.004-0.03-0.009-0.06-0.014-0.09
		c-0.008-0.053-0.017-0.107-0.027-0.16c-0.005-0.03-0.01-0.06-0.016-0.089c-0.011-0.058-0.022-0.116-0.033-0.174
		c-0.005-0.023-0.009-0.047-0.014-0.07c-0.016-0.079-0.033-0.158-0.052-0.237c-0.005-0.021-0.01-0.042-0.015-0.064
		c-0.014-0.058-0.028-0.117-0.043-0.175c-0.008-0.03-0.016-0.06-0.023-0.089c-0.013-0.05-0.027-0.1-0.04-0.149
		c-0.009-0.031-0.017-0.061-0.026-0.092c-0.015-0.051-0.03-0.101-0.045-0.152c-0.008-0.028-0.017-0.055-0.025-0.083
		c-0.024-0.075-0.048-0.15-0.073-0.225c-0.005-0.016-0.011-0.032-0.017-0.048c-0.021-0.06-0.041-0.12-0.063-0.179
		c-0.011-0.03-0.022-0.059-0.033-0.088c-0.017-0.046-0.035-0.092-0.053-0.138c-0.012-0.031-0.025-0.063-0.037-0.094
		c-0.018-0.045-0.036-0.09-0.055-0.135c-0.012-0.03-0.025-0.06-0.037-0.09c-0.023-0.053-0.046-0.106-0.07-0.159
		c-0.009-0.021-0.018-0.041-0.027-0.062c-0.031-0.069-0.064-0.138-0.097-0.207c-0.014-0.029-0.028-0.057-0.042-0.085
		c-0.021-0.043-0.043-0.086-0.064-0.129c-0.016-0.031-0.032-0.062-0.048-0.093c-0.021-0.041-0.043-0.081-0.064-0.122
		c-0.016-0.03-0.033-0.061-0.049-0.091c-0.024-0.044-0.048-0.087-0.073-0.131c-0.015-0.026-0.029-0.052-0.044-0.077
		c-0.038-0.065-0.076-0.13-0.115-0.195c-0.016-0.026-0.032-0.052-0.048-0.078c-0.026-0.041-0.051-0.083-0.077-0.124
		c-0.019-0.03-0.038-0.059-0.057-0.088c-0.024-0.038-0.049-0.075-0.074-0.112c-0.02-0.029-0.039-0.059-0.059-0.088
		c-0.026-0.039-0.053-0.077-0.08-0.116c-0.018-0.026-0.037-0.053-0.055-0.079c-0.043-0.061-0.087-0.121-0.132-0.181l0,0
		c-1.177-1.578-2.776-2.822-4.629-3.566l0,0c-0.074-0.03-0.148-0.058-0.222-0.086c-0.005-0.002-0.011-0.004-0.016-0.006
		c-0.071-0.026-0.142-0.052-0.213-0.077c-0.01-0.003-0.019-0.007-0.029-0.01c-0.068-0.024-0.136-0.046-0.205-0.069
		c-0.013-0.004-0.026-0.009-0.04-0.013c-0.066-0.021-0.132-0.041-0.198-0.061c-0.017-0.005-0.033-0.01-0.05-0.015
		c-0.064-0.019-0.127-0.037-0.191-0.054c-0.02-0.005-0.04-0.011-0.06-0.016c-0.061-0.016-0.123-0.032-0.185-0.048
		c-0.023-0.006-0.046-0.011-0.07-0.017c-0.059-0.014-0.119-0.028-0.178-0.041c-0.026-0.006-0.053-0.011-0.079-0.017
		c-0.057-0.012-0.115-0.024-0.172-0.036c-0.029-0.006-0.059-0.011-0.088-0.017c-0.055-0.01-0.11-0.021-0.166-0.03
		c-0.033-0.006-0.065-0.011-0.098-0.016c-0.053-0.009-0.106-0.017-0.159-0.025c-0.036-0.005-0.072-0.01-0.108-0.015
		c-0.05-0.007-0.101-0.014-0.152-0.02c-0.039-0.005-0.079-0.009-0.118-0.014c-0.048-0.005-0.096-0.011-0.144-0.016
		c-0.043-0.004-0.087-0.008-0.13-0.012c-0.045-0.004-0.089-0.008-0.134-0.011c-0.049-0.004-0.097-0.006-0.146-0.009
		c-0.04-0.002-0.081-0.005-0.121-0.007c-0.057-0.003-0.114-0.005-0.171-0.007c-0.033-0.001-0.065-0.003-0.098-0.004
		c-0.09-0.002-0.181-0.003-0.272-0.003s-0.181,0.001-0.272,0.003c-0.033,0.001-0.065,0.002-0.098,0.004
		c-0.057,0.002-0.114,0.004-0.171,0.007c-0.041,0.002-0.081,0.005-0.121,0.007C10.067-0.016,10.018-0.013,9.97-0.01
		C9.925-0.006,9.88-0.002,9.835,0.002c-0.043,0.004-0.087,0.007-0.13,0.012c-0.048,0.005-0.096,0.01-0.144,0.016
		C9.522,0.034,9.482,0.038,9.443,0.043c-0.051,0.006-0.101,0.013-0.152,0.02c-0.036,0.005-0.072,0.01-0.108,0.015
		C9.13,0.086,9.077,0.094,9.024,0.103C8.992,0.108,8.959,0.114,8.927,0.119c-0.056,0.01-0.111,0.02-0.166,0.03
		C8.731,0.155,8.702,0.161,8.673,0.166C8.615,0.178,8.557,0.19,8.5,0.202C8.474,0.208,8.448,0.214,8.422,0.219
		c-0.06,0.013-0.12,0.027-0.179,0.042C8.22,0.267,8.197,0.272,8.174,0.278C8.112,0.293,8.05,0.309,7.988,0.326
		c-0.02,0.005-0.039,0.011-0.059,0.016C7.865,0.359,7.8,0.377,7.736,0.396C7.72,0.401,7.704,0.406,7.688,0.411
		c-0.067,0.02-0.133,0.04-0.2,0.062C7.476,0.476,7.463,0.481,7.45,0.485C7.381,0.507,7.312,0.53,7.243,0.554
		C7.234,0.557,7.226,0.56,7.217,0.563C7.145,0.589,7.073,0.614,7.001,0.641C6.997,0.643,6.993,0.644,6.989,0.646
		C5.037,1.379,3.354,2.662,2.13,4.305C2.087,4.363,2.044,4.421,2.003,4.48c-0.02,0.028-0.039,0.056-0.059,0.083
		C1.918,4.6,1.893,4.637,1.867,4.674c-0.02,0.03-0.041,0.06-0.061,0.09C1.782,4.801,1.758,4.837,1.734,4.874
		c-0.02,0.03-0.039,0.06-0.059,0.091c-0.025,0.04-0.05,0.079-0.074,0.119C1.585,5.111,1.567,5.138,1.551,5.166
		C1.512,5.23,1.474,5.294,1.436,5.359c-0.015,0.027-0.03,0.053-0.045,0.08C1.367,5.481,1.343,5.524,1.32,5.567
		C1.303,5.597,1.287,5.628,1.27,5.659c-0.021,0.04-0.042,0.08-0.063,0.12C1.191,5.81,1.174,5.842,1.158,5.873
		C1.137,5.915,1.116,5.958,1.095,6.001C1.081,6.03,1.067,6.058,1.053,6.087C1.02,6.155,0.988,6.223,0.957,6.291
		c-0.01,0.022-0.019,0.044-0.029,0.065C0.905,6.409,0.882,6.462,0.859,6.515c-0.013,0.03-0.025,0.06-0.038,0.09
		C0.803,6.649,0.785,6.694,0.767,6.739C0.754,6.77,0.742,6.801,0.73,6.833C0.712,6.879,0.695,6.925,0.677,6.971
		C0.666,7.001,0.655,7.03,0.644,7.06C0.623,7.119,0.602,7.179,0.582,7.238C0.576,7.255,0.57,7.271,0.564,7.287
		C0.539,7.362,0.515,7.436,0.492,7.512C0.483,7.539,0.475,7.567,0.466,7.594C0.451,7.645,0.436,7.695,0.421,7.746
		C0.412,7.777,0.404,7.808,0.395,7.838c-0.014,0.05-0.027,0.099-0.04,0.149c-0.008,0.03-0.016,0.059-0.023,0.089
		C0.317,8.135,0.303,8.193,0.289,8.252c-0.005,0.021-0.01,0.042-0.015,0.063C0.256,8.394,0.238,8.472,0.222,8.552
		c-0.005,0.023-0.009,0.046-0.014,0.07C0.197,8.679,0.186,8.737,0.175,8.795C0.17,8.825,0.165,8.855,0.159,8.884
		C0.15,8.938,0.141,8.991,0.133,9.045c-0.005,0.03-0.009,0.06-0.014,0.09C0.11,9.192,0.102,9.251,0.094,9.31
		c-0.003,0.024-0.007,0.048-0.01,0.072c-0.01,0.082-0.02,0.165-0.028,0.247C0.055,9.645,0.054,9.66,0.052,9.676
		C0.045,9.744,0.039,9.812,0.034,9.88C0.032,9.908,0.03,9.937,0.028,9.965c-0.004,0.057-0.008,0.113-0.011,0.17
		c-0.002,0.03-0.003,0.06-0.005,0.091c-0.003,0.059-0.005,0.117-0.007,0.176c-0.001,0.027-0.002,0.053-0.003,0.08
		C0.001,10.568,0,10.653,0,10.738c0,0.076,0.001,0.153,0.003,0.229c0.001,0.034,0.002,0.068,0.003,0.103
		c0.001,0.029,0.002,0.059,0.003,0.088c0.074,1.937,0.659,3.742,1.624,5.286c0,0,0,0,0,0c0.183,0.293,0.379,0.576,0.589,0.848
		c0.001,0.001,0.002,0.003,0.003,0.004c0.207,0.27,0.426,0.529,0.658,0.778c0.005,0.006,0.011,0.012,0.016,0.017
		c0.044,0.047,0.088,0.094,0.133,0.14c0.002,0.002,0.004,0.004,0.006,0.006c0.139,0.143,0.282,0.283,0.429,0.419
		c0.005,0.004,0.009,0.009,0.014,0.013c0.043,0.04,0.087,0.08,0.131,0.119c0.012,0.011,0.024,0.022,0.036,0.032
		c0.043,0.038,0.086,0.076,0.13,0.113c0.01,0.009,0.02,0.017,0.03,0.026c0.14,0.118,0.282,0.233,0.428,0.345
		c0.015,0.011,0.029,0.022,0.044,0.033c0.042,0.031,0.083,0.062,0.125,0.093c0.02,0.015,0.04,0.029,0.06,0.044
		c0.041,0.03,0.082,0.059,0.124,0.089c0.019,0.014,0.039,0.027,0.059,0.041c0.138,0.096,0.279,0.188,0.422,0.278
		c0.024,0.015,0.048,0.03,0.072,0.045c0.04,0.024,0.08,0.048,0.119,0.072c0.027,0.016,0.054,0.032,0.081,0.048
		c0.039,0.023,0.079,0.046,0.118,0.068c0.028,0.016,0.056,0.031,0.084,0.047c0.138,0.077,0.278,0.151,0.42,0.222
		c0.031,0.016,0.062,0.031,0.094,0.047c0.039,0.019,0.078,0.038,0.117,0.056c0.032,0.015,0.064,0.03,0.097,0.045
		c0.039,0.018,0.078,0.036,0.117,0.053c0.033,0.015,0.066,0.029,0.1,0.044c0.039,0.017,0.078,0.034,0.117,0.05c0,0,0,0,0,0
		c1.283,0.539,2.693,0.837,4.172,0.837c1.459,0,2.85-0.291,4.12-0.816l0,0c0.065-0.027,0.13-0.055,0.195-0.083
		c0.007-0.003,0.013-0.006,0.02-0.009c0.063-0.028,0.126-0.056,0.189-0.085c0.005-0.002,0.011-0.005,0.016-0.007
		c0.33-0.153,0.65-0.323,0.961-0.507c0.007-0.004,0.013-0.008,0.02-0.012c0.056-0.033,0.111-0.067,0.166-0.101
		c0.011-0.007,0.023-0.014,0.034-0.021c0.053-0.033,0.106-0.067,0.159-0.102c0.011-0.007,0.022-0.014,0.033-0.021
		c0.054-0.036,0.108-0.072,0.162-0.108c0.002-0.001,0.004-0.003,0.007-0.004c0.173-0.119,0.343-0.242,0.509-0.371
		c0.009-0.007,0.017-0.013,0.026-0.02c0.045-0.035,0.089-0.07,0.133-0.106c0.018-0.014,0.036-0.029,0.054-0.043
		c0.041-0.033,0.082-0.067,0.122-0.101c0.021-0.017,0.041-0.034,0.061-0.052c0.039-0.033,0.078-0.066,0.116-0.1
		c0.021-0.019,0.042-0.037,0.063-0.056c0.038-0.034,0.075-0.067,0.113-0.101c0.02-0.018,0.039-0.036,0.058-0.054
		c0.08-0.075,0.159-0.15,0.237-0.227c0.011-0.011,0.022-0.021,0.033-0.032c0.031-0.031,0.062-0.063,0.093-0.094
		c0.026-0.026,0.051-0.052,0.076-0.078c0.029-0.03,0.057-0.061,0.086-0.091c0.027-0.029,0.053-0.057,0.08-0.086
		c0.027-0.03,0.054-0.059,0.081-0.089c0.028-0.031,0.055-0.062,0.082-0.092c0.025-0.029,0.051-0.058,0.076-0.087
		c0.029-0.034,0.058-0.068,0.086-0.102c0.023-0.027,0.046-0.054,0.068-0.081c0.036-0.044,0.071-0.088,0.106-0.132
		c0.015-0.018,0.03-0.037,0.044-0.055c0.048-0.062,0.096-0.124,0.143-0.187c0.017-0.023,0.034-0.046,0.051-0.069
		c0.031-0.042,0.062-0.084,0.092-0.127c0.019-0.026,0.037-0.052,0.056-0.079c0.028-0.04,0.056-0.081,0.084-0.122
		c0.018-0.027,0.037-0.054,0.055-0.081c0.028-0.041,0.055-0.083,0.082-0.125c0.017-0.026,0.034-0.052,0.051-0.079
		c0.029-0.046,0.058-0.092,0.086-0.138c0.014-0.023,0.028-0.045,0.042-0.068c0.041-0.068,0.082-0.137,0.122-0.206
		c0.001-0.001,0.001-0.002,0.001-0.002l0.001-0.001c0.843-1.466,1.35-3.15,1.419-4.945c0.001-0.029,0.002-0.058,0.003-0.088
		c0.001-0.034,0.002-0.068,0.003-0.103c0.002-0.076,0.003-0.152,0.003-0.229C21.556,10.653,21.554,10.568,21.552,10.483z
		 M11.218,3.33l2.719-1.976c0.234,0.079,0.465,0.166,0.693,0.263c1.179,0.499,2.237,1.212,3.147,2.122
		c0.496,0.496,0.934,1.037,1.31,1.617l-0.949,2.997l-2.829,0.929L11.218,6.31V3.33z M3.779,3.739
		C4.688,2.83,5.747,2.116,6.925,1.618c0.228-0.097,0.46-0.184,0.693-0.263l2.719,1.976V6.31L6.225,9.298l-2.802-0.93L2.469,5.357
		C2.845,4.776,3.283,4.235,3.779,3.739z M5.509,17.057l-2.685-0.425c-0.468-0.63-0.859-1.312-1.167-2.041
		c-0.505-1.193-0.765-2.459-0.776-3.764l2.268-1.622l2.804,0.931l1.588,4.889L5.509,17.057z M15.062,19.664
		c-0.142,0.068-0.286,0.133-0.431,0.195c-1.22,0.516-2.516,0.777-3.852,0.777c-1.337,0-2.633-0.262-3.852-0.777
		c-0.164-0.069-0.325-0.143-0.484-0.221l-0.31-1.959l2.193-2.193h5.217l1.885,1.885L15.062,19.664z M19.898,14.591
		c-0.252,0.597-0.56,1.163-0.92,1.694l-2.931,0.464l-1.958-1.958l1.521-4.682l2.783-0.914l2.281,1.631
		C20.663,12.132,20.403,13.398,19.898,14.591z"/>
</g>
</svg>
