<?xml version="1.0" encoding="utf-8"?>
<!-- Generator: Adobe Illustrator 17.0.0, SVG Export Plug-In . SVG Version: 6.00 Build 0)  -->
<!DOCTYPE svg PUBLIC "-//W3C//DTD SVG 1.1//EN" "http://www.w3.org/Graphics/SVG/1.1/DTD/svg11.dtd">
<svg version="1.1" id="Layer_1" xmlns="http://www.w3.org/2000/svg" xmlns:xlink="http://www.w3.org/1999/xlink" x="0px" y="0px"
	 width="375px" height="668px" viewBox="0 0 375 668" enable-background="new 0 0 375 668" xml:space="preserve">
<g display="none">
	<g display="inline">
		<polygon fill="none" points="120.39,657.704 113.919,668 141.625,668 		"/>
		<polygon fill="none" points="25.836,668 46.299,668 32.381,653.704 		"/>
		<polygon fill="#F6F6F6" points="0,593.909 0,668 0,668 		"/>
		<polygon fill="#F6F6F6" points="221.39,546.704 264.39,543.204 277.39,514.704 291.354,479.542 284.924,465.841 256.457,475.491 
			221.906,439 181.925,439 225.322,483.618 274.193,487.728 256.39,533.679 204.89,529.192 188.433,569.667 192.39,587.201 
			164.39,628.203 140.89,656.704 112.39,639.204 98.497,668 113.919,668 120.39,657.704 150.126,681.359 157.591,668 
			207.89,599.704 		"/>
		<polygon fill="#F6F6F6" points="0,683.022 0,698.653 32.381,653.704 46.299,668 79.156,703.974 113.919,668 31.381,648.204 		"/>
		<polygon fill="#F6F6F6" points="138.144,442.272 150.598,443.085 168.39,456.102 181.925,439 101.179,439 118.574,464.926 		"/>
		<polygon fill="#EEEEEE" points="141.703,499.974 177.285,488.738 197.746,511.352 201.484,522.679 187.89,548.704 160.89,589.353 
			151.89,619.204 94.89,625.704 82.845,662.69 25.381,638.204 -5.486,685 -0.269,685 31.381,648.204 53.448,668 77.745,692.667 
			98.497,668 112.39,639.204 140.89,656.704 164.39,628.204 192.39,587.204 188.433,569.674 204.89,529.204 256.39,533.704 
			274.193,487.779 225.322,483.72 181.925,439.204 168.39,456.204 150.598,443.085 138.144,442.272 118.574,464.926 101.179,439 
			75.351,439 89.217,485.243 		"/>
		<polygon fill="#E7E7E7" points="-0.745,677.812 25.381,638.204 82.845,662.69 94.89,625.704 151.89,619.204 160.89,589.353 
			187.89,548.704 201.484,522.679 197.746,511.352 177.285,488.738 141.703,499.974 89.217,485.243 75.351,439 0,439 0,439.102 
			0,498.6 30.438,494.441 36.733,504 73.205,504 109.233,519.66 132.329,555.97 145.812,570.75 140.89,604.227 70.6,614.538 
			78.39,637.71 19.881,632.207 0,660.41 0,512.908 0,593.909 0,668 		"/>
		<polygon fill="#DCDCDC" points="0,660.409 19.881,632.204 78.39,637.704 70.6,614.527 140.89,604.204 145.812,570.704 
			132.329,555.879 109.233,519.66 73.205,504 36.733,504 30.506,494.641 0,499 0,499 0,513.081 		"/>
	</g>
	<polygon display="inline" fill="#79E425" points="375.27,0 375,438.818 0,618.818 0.27,0 225.933,0 	"/>
	<g display="inline">
		<defs>
			<polygon id="SVGID_1_" points="375.27,0 375,438.818 0,618.818 1,0 225.933,0 			"/>
		</defs>
		<clipPath id="SVGID_2_">
			<use xlink:href="#SVGID_1_"  overflow="visible"/>
		</clipPath>
		<polyline clip-path="url(#SVGID_2_)" fill="#75DC24" points="-96.584,559.155 -25.454,323.231 24.748,262.822 148.938,419.838 
			190.748,407.752 254.797,475.206 283.264,465.454 311.73,526.101 -25.454,646.687 -96.584,559.155 		"/>
		<path clip-path="url(#SVGID_2_)" fill="#70D224" d="M-107.259,642.624l50.706-298.718l31.1-20.675L7.073,301.57l109.841,163.071
			l19.571-22.756l12.454,0.813l24.018-11.378l50.706,52.013l58.712,4.876c0,0-241.964,186.922-246.412,186.922
			S-107.259,642.624-107.259,642.624"/>
		<polyline clip-path="url(#SVGID_2_)" fill="#6BC823" points="-107.259,424.032 -25.454,435.863 22.618,394.749 67.987,419.838 
			87.557,484.959 140.042,499.587 175.625,488.351 196.085,510.965 223.662,594.521 -75.235,665.379 		"/>
		<polygon clip-path="url(#SVGID_2_)" fill="#68C322" points="-25.454,501.752 28.846,493.899 35.073,503.251 71.545,503.251 
			107.573,519.092 148.938,584.109 -42.32,621.204 		"/>
		<path clip-path="url(#SVGID_2_)" fill="#85E441" d="M496.109,191.315c0-81.424-66.007-147.432-147.431-147.432
			s-147.432,66.007-147.432,147.432s66.007,147.431,147.432,147.431S496.109,272.739,496.109,191.315"/>
		<path clip-path="url(#SVGID_2_)" fill="#99E464" d="M458.505,191.315c0-60.656-49.172-109.828-109.828-109.828
			s-109.828,49.172-109.828,109.828s49.172,109.828,109.828,109.828S458.505,251.971,458.505,191.315"/>
		<path clip-path="url(#SVGID_2_)" fill="#AEE485" d="M421.45,191.315c0-40.191-32.581-72.773-72.773-72.773
			s-72.773,32.581-72.773,72.773s32.581,72.773,72.773,72.773S421.45,231.506,421.45,191.315"/>
		<circle clip-path="url(#SVGID_2_)" fill="#B8E497" cx="348.677" cy="191.315" r="50.211"/>
	</g>
	<g id="start_alt_3_tekt_1_" display="inline">
		<g>
			<path fill="#79E425" d="M255.526,539.75v10.77h-4.08v-9.82c0-1.74-0.24-2.94-0.73-3.6c-0.47-0.66-1.32-1.01-2.56-1.01
				c-1.35,0-2.31,0.45-2.87,1.35c-0.56,0.86-0.83,2.4-0.83,4.6v8.48h-4.09v-17.58h4.09v1.62c1.42-1.42,3.02-2.12,4.8-2.12
				c2.05,0,3.64,0.64,4.79,1.94C255.036,535.48,255.526,537.26,255.526,539.75z"/>
			<path fill="#79E425" d="M234.336,581.91h4.08c0,1.83-0.49,3.29-1.46,4.42c-1.27,1.45-2.89,2.19-4.86,2.19
				c-1.74,0-3.19-0.61-4.36-1.82c-1.18-1.2-1.77-2.7-1.77-4.45c0-1.41,0.37-2.53,1.1-3.37c0.75-0.84,2.01-1.6,3.8-2.24
				c1.77-0.64,2.89-1.16,3.36-1.56c0.48-0.41,0.72-1.02,0.72-1.84c0-0.84-0.25-1.5-0.75-1.99s-1.16-0.73-2-0.73
				c-0.83,0-1.49,0.24-1.98,0.73c-0.5,0.47-0.74,1.13-0.74,1.97c0,0.36,0.07,0.88,0.21,1.54h-4.21c-0.02-0.3-0.04-0.59-0.06-0.82
				c-0.02-0.24-0.03-0.46-0.03-0.66c0-1.9,0.65-3.48,1.94-4.74c1.27-1.28,2.89-1.9,4.84-1.9c1.96,0,3.6,0.64,4.91,1.92
				c1.32,1.27,1.97,2.86,1.97,4.77c0,1.97-0.65,3.55-1.97,4.76c-0.83,0.75-2.39,1.49-4.69,2.21c-1.57,0.48-2.35,1.24-2.35,2.28
				c0,0.28,0.05,0.56,0.17,0.82c0.11,0.26,0.27,0.48,0.46,0.68c0.19,0.18,0.42,0.33,0.68,0.44c0.26,0.12,0.53,0.16,0.82,0.16
				C233.486,584.68,234.216,583.75,234.336,581.91z"/>
			<path fill="#79E425" d="M235.056,523.78c0.52,0.5,0.78,1.12,0.78,1.86c0,0.72-0.26,1.36-0.78,1.88c-0.51,0.5-1.13,0.76-1.86,0.76
				c-0.74,0-1.36-0.26-1.88-0.76c-0.52-0.52-0.78-1.16-0.78-1.9c0-0.71,0.26-1.34,0.78-1.84c0.52-0.53,1.14-0.78,1.86-0.78
				C233.916,523,234.536,523.25,235.056,523.78z"/>
			<rect x="231.156" y="532.94" fill="#79E425" width="4.06" height="17.58"/>
			<path fill="#79E425" d="M234.006,591.16c0.49,0.48,0.74,1.08,0.74,1.76c0,0.7-0.25,1.3-0.74,1.8c-0.48,0.48-1.06,0.72-1.75,0.72
				c-0.71,0-1.31-0.24-1.79-0.72c-0.49-0.5-0.74-1.1-0.74-1.81c0-0.67,0.25-1.27,0.74-1.75c0.49-0.5,1.08-0.75,1.77-0.75
				C232.926,590.41,233.516,590.66,234.006,591.16z"/>
			<path fill="#79E425" d="M223.386,577.9l-1.86,3.72c-0.77-0.56-1.53-0.84-2.26-0.84c-2.22,0-3.32,1.68-3.32,5.02v9.12h-4.07
				v-17.59h4.07v1.58c0.74-0.79,1.4-1.33,1.98-1.61c0.59-0.3,1.29-0.46,2.1-0.46C221.096,576.84,222.216,577.2,223.386,577.9z"/>
			<path fill="#79E425" d="M217.406,533.5l-1.86,3.72c-0.77-0.56-1.52-0.84-2.26-0.84c-2.22,0-3.32,1.68-3.32,5.03v9.11h-4.07
				v-17.58h4.07v1.56c0.74-0.78,1.41-1.32,1.98-1.6c0.59-0.31,1.29-0.46,2.1-0.46C215.116,532.44,216.236,532.8,217.406,533.5z"/>
			<path fill="#79E425" d="M204.166,588.41l3.43,1.92c-0.53,0.89-1.09,1.67-1.68,2.31s-1.22,1.18-1.9,1.6
				c-0.67,0.4-1.4,0.72-2.19,0.9c-0.78,0.19-1.63,0.3-2.54,0.3c-2.63,0-4.74-0.85-6.33-2.53c-1.59-1.71-2.38-3.95-2.38-6.77
				c0-2.78,0.77-5.02,2.31-6.74c1.56-1.7,3.61-2.56,6.18-2.56c2.59,0,4.64,0.82,6.14,2.48c1.5,1.64,2.24,3.9,2.24,6.8l-0.02,0.96
				h-12.6c0.1,1.46,0.57,2.6,1.4,3.46c0.84,0.84,1.9,1.26,3.2,1.26c1.01,0,1.85-0.24,2.51-0.72
				C202.586,590.59,203.326,589.7,204.166,588.41z M195.096,583.76h8.16c-0.56-2.17-1.93-3.24-4.1-3.24c-0.49,0-0.96,0.06-1.39,0.22
				c-0.43,0.14-0.83,0.36-1.18,0.64c-0.36,0.29-0.66,0.64-0.92,1.03C195.416,582.8,195.226,583.25,195.096,583.76z"/>
			<path fill="#79E425" d="M198.186,544l3.43,1.92c-0.53,0.91-1.09,1.67-1.68,2.33c-0.59,0.63-1.22,1.16-1.9,1.58
				c-0.67,0.42-1.4,0.73-2.18,0.92c-0.79,0.19-1.64,0.29-2.55,0.29c-2.63,0-4.73-0.84-6.32-2.54c-1.59-1.7-2.39-3.94-2.39-6.75
				c0-2.79,0.77-5.03,2.31-6.75c1.56-1.7,3.62-2.56,6.18-2.56c2.59,0,4.64,0.82,6.14,2.47c1.5,1.65,2.24,3.92,2.24,6.81l-0.01,0.96
				h-12.61c0.1,1.46,0.57,2.6,1.4,3.46c0.84,0.84,1.9,1.27,3.2,1.27c1.01,0,1.85-0.25,2.51-0.73
				C196.606,546.2,197.356,545.3,198.186,544z M189.116,539.36h8.16c-0.56-2.16-1.93-3.24-4.1-3.24c-0.49,0-0.96,0.06-1.39,0.21
				c-0.43,0.15-0.83,0.37-1.18,0.65c-0.36,0.3-0.66,0.64-0.91,1.02C189.436,538.41,189.246,538.86,189.116,539.36z"/>
			<path fill="#79E425" d="M186.096,568.17c0.52,0.5,0.78,1.13,0.78,1.87c0,0.72-0.26,1.36-0.78,1.87
				c-0.51,0.51-1.13,0.77-1.86,0.77c-0.74,0-1.36-0.26-1.88-0.77c-0.52-0.51-0.78-1.15-0.78-1.89c0-0.72,0.26-1.32,0.78-1.85
				c0.52-0.51,1.14-0.77,1.86-0.77C184.946,567.4,185.576,567.66,186.096,568.17z"/>
			<rect x="182.196" y="577.33" fill="#79E425" width="4.06" height="17.59"/>
			<polygon fill="#79E425" points="179.306,577.33 167.916,591.09 178.376,591.09 178.376,594.92 159.866,594.92 171.266,581.12 
				162.286,581.12 162.286,577.33 			"/>
			<polygon fill="#FFFFFF" points="171.246,536.49 171.246,536.72 170.756,536.72 			"/>
			<polygon fill="#FFFFFF" points="171.246,532.94 171.246,536.49 170.756,536.72 168.086,536.72 168.086,538 164.016,539.96 
				164.016,536.72 162.286,536.72 162.286,532.94 164.016,532.94 164.016,526.48 168.086,526.48 168.086,532.94 			"/>
			<polygon fill="#79E425" points="168.086,538 168.086,550.52 164.016,550.52 164.016,539.96 			"/>
			<path fill="#79E425" d="M158.766,542.48v7.64c0,0.82-0.03,1.55-0.09,2.18c-0.05,0.64-0.13,1.2-0.22,1.68
				c-0.29,1.32-0.86,2.46-1.7,3.42c-1.59,1.82-3.78,2.74-6.56,2.74c-2.35,0-4.28-0.64-5.8-1.89c-1.56-1.31-2.47-3.11-2.71-5.41h4.09
				c0.15,0.86,0.41,1.54,0.77,2c0.85,1.1,2.07,1.66,3.69,1.66c2.97,0,4.46-1.84,4.46-5.48v-2.46c-1.61,1.64-3.47,2.48-5.58,2.48
				c-1.88,0-3.49-0.54-4.84-1.61l4.48-2.15c0.36,0.09,0.76,0.13,1.17,0.13c1.55,0,2.78-0.58,3.69-1.71
				c0.27-0.33,0.49-0.68,0.66-1.07L158.766,542.48z"/>
			<path fill="#FFFFFF" d="M158.766,532.94v9.54l-4.49,2.15c0.39-0.82,0.58-1.78,0.58-2.87c0-1.7-0.45-3.08-1.37-4.1
				c-0.93-1.04-2.11-1.57-3.56-1.57c-1.54,0-2.76,0.57-3.65,1.71c-0.81,1.03-1.21,2.36-1.21,3.98c0,1.6,0.4,2.92,1.21,3.94
				c0.64,0.82,1.47,1.35,2.48,1.56l-4.48,2.15c-0.37-0.29-0.72-0.62-1.05-0.99c-1.54-1.77-2.31-3.96-2.31-6.61
				c0-2.55,0.71-4.74,2.15-6.53c1.54-1.9,3.57-2.86,6.1-2.86c2.22,0,4.06,0.82,5.53,2.47v-1.97H158.766z"/>
			<path fill="#79E425" d="M156.776,568.17c0.51,0.5,0.77,1.13,0.77,1.87c0,0.72-0.26,1.36-0.77,1.87
				c-0.51,0.51-1.13,0.77-1.86,0.77c-0.74,0-1.37-0.26-1.88-0.77c-0.52-0.51-0.78-1.15-0.78-1.89c0-0.72,0.26-1.32,0.78-1.85
				c0.51-0.51,1.13-0.77,1.86-0.77C155.626,567.4,156.256,567.66,156.776,568.17z"/>
			<rect x="152.866" y="577.33" fill="#79E425" width="4.07" height="17.59"/>
			<polygon fill="#79E425" points="150.126,577.33 140.986,596.14 131.916,577.33 136.466,577.33 141.016,587.22 145.556,577.33 			
				"/>
			<path fill="#FFFFFF" d="M136.436,523.78c0.51,0.5,0.77,1.12,0.77,1.86c0,0.72-0.26,1.36-0.77,1.88c-0.51,0.5-1.13,0.76-1.86,0.76
				c-0.74,0-1.37-0.26-1.88-0.76c-0.52-0.52-0.78-1.16-0.78-1.9c0-0.71,0.26-1.34,0.78-1.84c0.51-0.53,1.13-0.78,1.86-0.78
				S135.916,523.25,136.436,523.78z"/>
			<rect x="132.526" y="532.94" fill="#FFFFFF" width="4.07" height="17.58"/>
			<rect x="123.316" y="520.02" fill="#FFFFFF" width="4.06" height="30.5"/>
			<polygon fill="#79E425" points="120.116,577.33 110.906,596.25 106.006,584.91 101.056,596.25 91.866,577.33 96.436,577.33 
				101.036,587.38 106.006,575.72 111.016,587.38 115.566,577.33 			"/>
			<path fill="#FFFFFF" d="M104.186,544l3.43,1.92c-0.53,0.91-1.09,1.67-1.68,2.33c-0.59,0.63-1.22,1.16-1.9,1.58
				c-0.67,0.42-1.4,0.73-2.18,0.92c-0.79,0.19-1.64,0.29-2.55,0.29c-2.63,0-4.73-0.84-6.32-2.54c-1.59-1.7-2.39-3.94-2.39-6.75
				c0-2.79,0.77-5.03,2.31-6.75c1.56-1.7,3.62-2.56,6.18-2.56c2.59,0,4.64,0.82,6.14,2.47c1.5,1.65,2.24,3.92,2.24,6.81l-0.01,0.96
				h-12.61c0.1,1.46,0.57,2.6,1.4,3.46c0.84,0.84,1.9,1.27,3.2,1.27c1.01,0,1.85-0.25,2.51-0.73
				C102.606,546.2,103.356,545.3,104.186,544z M95.116,539.36h8.16c-0.56-2.16-1.93-3.24-4.1-3.24c-0.49,0-0.96,0.06-1.39,0.21
				c-0.43,0.15-0.83,0.37-1.18,0.65c-0.36,0.3-0.66,0.64-0.91,1.02C95.436,538.41,95.246,538.86,95.116,539.36z"/>
			<path fill="#79E425" d="M89.096,577.33v10.19c0,1.42-0.17,2.62-0.52,3.65c-0.34,0.91-0.92,1.74-1.76,2.47
				c-1.37,1.19-3.11,1.8-5.24,1.8c-2.1,0-3.84-0.61-5.22-1.8c-0.84-0.73-1.44-1.56-1.78-2.47c-0.34-0.81-0.51-2.03-0.51-3.65v-4.39
				l4.06-1.95v6.26c0,2.9,1.15,4.36,3.45,4.36c2.31,0,3.46-1.46,3.46-4.36v-9.57l1.12-0.54H89.096z"/>
			<path fill="#FFFFFF" d="M86.116,523.78c0.52,0.5,0.78,1.12,0.78,1.86c0,0.72-0.26,1.36-0.78,1.88c-0.51,0.5-1.13,0.76-1.86,0.76
				c-0.74,0-1.36-0.26-1.88-0.76c-0.52-0.52-0.78-1.16-0.78-1.9c0-0.71,0.26-1.34,0.78-1.84c0.52-0.53,1.14-0.78,1.86-0.78
				C84.976,523,85.596,523.25,86.116,523.78z"/>
			<rect x="82.216" y="532.94" fill="#FFFFFF" width="4.06" height="17.58"/>
			<polygon fill="#FFFFFF" points="86.156,577.33 85.036,577.87 85.036,577.33 			"/>
			<polygon fill="#FFFFFF" points="79.156,522.64 66.696,552.3 59.526,532.54 52.046,552.32 40.196,522.64 44.766,522.64 
				52.026,541.28 59.616,521.28 66.876,541.28 74.586,522.64 			"/>
			<polygon fill="#FFFFFF" points="78.126,577.33 78.126,581.18 74.066,583.13 74.066,577.33 			"/>
			<path fill="#79E425" d="M69.726,585.21c0.03,0.31,0.04,0.62,0.04,0.93c0,2.64-0.91,4.86-2.73,6.64
				c-1.83,1.76-4.08,2.66-6.74,2.66c-2.56,0-4.73-0.85-6.49-2.58l3.75-1.8c0.79,0.49,1.73,0.74,2.82,0.74c1.59,0,2.86-0.5,3.81-1.54
				c0.74-0.79,1.19-1.8,1.35-3.03L69.726,585.21z"/>
			<path fill="#FFFFFF" d="M69.726,585.21l-4.19,2.02c0.05-0.34,0.07-0.7,0.07-1.07c0-1.7-0.47-3.08-1.42-4.1
				c-0.97-1.04-2.24-1.54-3.81-1.54c-1.56,0-2.82,0.5-3.78,1.54s-1.45,2.38-1.45,4.02c0,1.75,0.47,3.14,1.41,4.17
				c0.3,0.32,0.64,0.59,1,0.81l-3.75,1.8c-0.05-0.05-0.09-0.09-0.14-0.14c-1.78-1.78-2.67-4.02-2.67-6.72c0-2.54,0.91-4.7,2.73-6.48
				c1.82-1.78,4.03-2.68,6.65-2.68c2.62,0,4.85,0.91,6.68,2.7C68.646,581.11,69.536,583.01,69.726,585.21z"/>
			<path fill="#FFFFFF" d="M46.516,568.17c0.52,0.5,0.77,1.13,0.77,1.87c0,0.72-0.25,1.36-0.77,1.87c-0.51,0.51-1.13,0.77-1.86,0.77
				c-0.74,0-1.36-0.26-1.88-0.77c-0.52-0.51-0.78-1.15-0.78-1.89c0-0.72,0.26-1.32,0.78-1.85c0.52-0.51,1.14-0.77,1.86-0.77
				C45.366,567.4,45.996,567.66,46.516,568.17z"/>
			<polygon fill="#79E425" points="46.676,596.28 46.676,604.5 42.616,604.5 42.616,598.23 			"/>
			<polygon fill="#FFFFFF" points="46.676,577.33 46.676,596.28 42.616,598.23 42.616,577.33 			"/>
		</g>
		<g>
		</g>
	</g>
	<rect x="2" fill="none" width="375" height="667"/>
</g>
<g id="overzicht_bg_1_">
	<polygon fill="#79E425" points="0,0 200.588,0 375,321.824 375,668 196.244,668 0,668 	"/>
	<g>
		<defs>
			<rect id="SVGID_3_" width="375" height="668"/>
		</defs>
		<clipPath id="SVGID_4_">
			<use xlink:href="#SVGID_3_"  overflow="visible"/>
		</clipPath>
		<g opacity="0.5" clip-path="url(#SVGID_4_)">
			<ellipse fill="#DCDCDC" cx="301" cy="165.528" rx="147.432" ry="147.211"/>
			<ellipse fill="#E7E7E7" cx="301" cy="165.528" rx="109.828" ry="109.664"/>
			<ellipse fill="#EEEEEE" cx="301" cy="165.528" rx="72.773" ry="72.664"/>
			<ellipse fill="#F6F6F6" cx="301" cy="165.528" rx="38.547" ry="38.489"/>
		</g>
		<g clip-path="url(#SVGID_4_)">
			<defs>
				<polygon id="SVGID_5_" points="0,0 200.588,0 375,321.858 375,668 196.244,668 0,668 				"/>
			</defs>
			<clipPath id="SVGID_6_">
				<use xlink:href="#SVGID_5_"  overflow="visible"/>
			</clipPath>
			<g id="overzicht_alt_bg_3_" clip-path="url(#SVGID_6_)">
				<g>
					<ellipse fill="#68C322" cx="300.701" cy="165.742" rx="147.432" ry="147.211"/>
					<ellipse fill="#6BC823" cx="300.701" cy="165.742" rx="109.828" ry="109.664"/>
					<ellipse fill="#70D224" cx="300.701" cy="165.742" rx="72.773" ry="72.664"/>
					<ellipse fill="#75DC24" cx="300.701" cy="165.742" rx="38.547" ry="38.489"/>
				</g>
			</g>
			<g id="overzicht_alt_bg_2_" clip-path="url(#SVGID_6_)">
				<g>
					<ellipse fill="#68C322" cx="54.553" cy="330.921" rx="71.543" ry="71.436"/>
					<ellipse fill="#6BC823" cx="54.553" cy="330.921" rx="53.295" ry="53.215"/>
					<ellipse fill="#70D224" cx="54.553" cy="330.921" rx="35.314" ry="35.261"/>
					<ellipse fill="#75DC24" cx="54.553" cy="330.921" rx="19.145" ry="19.116"/>
				</g>
			</g>
			<path clip-path="url(#SVGID_6_)" fill="#75DC24" d="M373.759,480.818l-58.508-71.305l-15.047,53.919l-49.963,36.606
				l-23.059-33.768L199,490.49v51.7c0,0-26.378,22.312-30.378,21.641c-4-0.672-70.502-11.656-70.502-11.656l35.077,49.887
				l-2.977,29.886L89.609,668h285.15L373.759,480.818z"/>
			<polygon clip-path="url(#SVGID_6_)" fill="#70D224" points="336.501,474.79 311.372,548.18 243.058,522.718 238.651,532.204 
				220.197,527.711 214.22,566.652 159.232,582.629 133.238,577.636 148.241,611.01 143.242,650.527 117.243,655.519 107.605,668 
				374.759,668 373.759,514.98 			"/>
			<polygon clip-path="url(#SVGID_6_)" fill="#6BC823" points="348.501,519.195 373.759,514.98 374.759,668 125.853,668 
				167.122,657.017 172.183,624.316 158.213,599.728 220.728,587.184 229.736,548.711 265.24,583.143 268.742,562.666 
				326.871,606.597 			"/>
			<polygon clip-path="url(#SVGID_6_)" fill="#68C322" points="242.296,649.029 237.244,611.26 291.744,621.229 341.744,629.832 
				359.744,577.168 370.001,605.111 373.759,558.918 374.759,668 219.006,668 			"/>
		</g>
	</g>
</g>
</svg>
