<?xml version="1.0" encoding="utf-8"?>
<!-- Generator: Adobe Illustrator 17.0.0, SVG Export Plug-In . SVG Version: 6.00 Build 0)  -->
<!DOCTYPE svg PUBLIC "-//W3C//DTD SVG 1.1//EN" "http://www.w3.org/Graphics/SVG/1.1/DTD/svg11.dtd">
<svg version="1.1" id="Layer_1" xmlns="http://www.w3.org/2000/svg" xmlns:xlink="http://www.w3.org/1999/xlink" x="0px" y="0px"
	 width="375px" height="667px" viewBox="0 0 375 667" enable-background="new 0 0 375 667" xml:space="preserve">
<g id="team_aanmelden">
	<polygon fill="#79E425" points="0,0 200.83,0 375,0 375,667 196.011,667 0,667 	"/>
	<g>
		<defs>
			<rect id="SVGID_1_" y="1" width="375" height="666"/>
		</defs>
		<clipPath id="SVGID_2_">
			<use xlink:href="#SVGID_1_"  overflow="visible"/>
		</clipPath>
		<g display="none" clip-path="url(#SVGID_2_)">
			<ellipse display="inline" fill="#DCDCDC" cx="300.767" cy="166.528" rx="147.432" ry="147.211"/>
			<ellipse display="inline" fill="#E7E7E7" cx="300.767" cy="166.528" rx="109.828" ry="109.664"/>
			<ellipse display="inline" fill="#EEEEEE" cx="300.767" cy="166.528" rx="72.773" ry="72.664"/>
			<ellipse display="inline" fill="#F6F6F6" cx="300.767" cy="166.528" rx="38.547" ry="38.489"/>
		</g>
		<g clip-path="url(#SVGID_2_)">
			<defs>
				<polygon id="SVGID_3_" points="0,1 200.356,1 375,1 375,667 196.011,667 0,667 				"/>
			</defs>
			<clipPath id="SVGID_4_">
				<use xlink:href="#SVGID_3_"  overflow="visible"/>
			</clipPath>
			<g id="overzicht_alt_bg_45_" clip-path="url(#SVGID_4_)">
				<g>
					<ellipse fill="#68C322" cx="363.545" cy="401" rx="134.08" ry="133.879"/>
					<ellipse fill="#6BC823" cx="363.545" cy="401" rx="99.882" ry="99.732"/>
					<ellipse fill="#70D224" cx="363.545" cy="401" rx="66.182" ry="66.083"/>
					<ellipse fill="#75DC24" cx="363.545" cy="401" rx="35.056" ry="35.003"/>
				</g>
			</g>
			<g id="overzicht_alt_bg_44_" clip-path="url(#SVGID_4_)">
				<g>
					<ellipse fill="#68C322" cx="51.996" cy="143.81" rx="71.543" ry="71.436"/>
					<ellipse fill="#6BC823" cx="51.996" cy="143.81" rx="53.295" ry="53.215"/>
					<ellipse fill="#70D224" cx="51.996" cy="143.81" rx="35.314" ry="35.261"/>
					<ellipse fill="#75DC24" cx="51.996" cy="143.81" rx="19.145" ry="19.116"/>
				</g>
			</g>
			<g clip-path="url(#SVGID_4_)">
				<path fill="#75DC24" d="M0,481.818l58.196-71.305l14.89,53.919l49.885,36.606l23.453-33.768L175,491.49v51.7
					c0,0,25.946,22.312,29.946,21.641c4-0.672,70.285-11.656,70.285-11.656l-35.186,49.887l2.923,29.886L283.857,667H0V481.818z"/>
				<polygon fill="#70D224" points="36.946,475.79 61.918,549.18 130.155,523.718 134.523,533.204 152.957,528.711 158.924,567.652 
					213.908,583.629 239.899,578.636 224.895,612.01 229.893,651.527 255.892,656.519 265.842,667 0,667 0,515.98 				"/>
				<polygon fill="#6BC823" points="24.946,520.195 0,515.98 0,667 247.594,667 206.168,658.017 201.03,625.316 214.96,600.728 
					152.426,588.184 143.408,549.711 107.9,584.143 104.395,563.666 46.42,607.597 				"/>
				<polygon fill="#68C322" points="130.839,650.029 135.891,612.26 81.391,622.229 31.391,630.832 13.391,578.168 3.446,606.111 
					0,559.918 0,667 154.441,667 				"/>
			</g>
		</g>
	</g>
</g>
</svg>
